{
	"asset":{
		"generator":"Khronos glTF Blender I/O v4.2.0",
		"version":"2.0"
	},
	"scene":0,
	"scenes":[
		{
			"name":"Scene",
			"nodes":[
				0
			]
		}
	],
	"nodes":[
		{
			"mesh":0,
			"name":"AirJordan"
		}
	],
	"materials":[
		{
			"alphaMode":"BLEND",
			"doubleSided":true,
			"name":"MAT_Shoe_L",
			"normalTexture":{
				"index":0
			},
			"occlusionTexture":{
				"index":1
			},
			"pbrMetallicRoughness":{
				"baseColorTexture":{
					"index":2
				},
				"metallicFactor":0,
				"metallicRoughnessTexture":{
					"index":1
				}
			}
		},
		{
			"alphaMode":"BLEND",
			"doubleSided":true,
			"name":"MAT_Sole_L",
			"normalTexture":{
				"index":3
			},
			"occlusionTexture":{
				"index":4
			},
			"pbrMetallicRoughness":{
				"baseColorTexture":{
					"index":5
				},
				"metallicFactor":0,
				"metallicRoughnessTexture":{
					"index":4
				}
			}
		},
		{
			"alphaMode":"BLEND",
			"doubleSided":true,
			"name":"MAT_Laces_L",
			"normalTexture":{
				"index":6
			},
			"occlusionTexture":{
				"index":7
			},
			"pbrMetallicRoughness":{
				"baseColorTexture":{
					"index":8
				},
				"metallicFactor":0,
				"metallicRoughnessTexture":{
					"index":7
				}
			}
		}
	],
	"meshes":[
		{
			"name":"Cube.002",
			"primitives":[
				{
					"attributes":{
						"POSITION":0,
						"NORMAL":1,
						"TEXCOORD_0":2,
						"TEXCOORD_1":3,
						"TEXCOORD_2":4,
						"TEXCOORD_3":5,
						"TEXCOORD_4":6
					},
					"indices":7,
					"material":0
				},
				{
					"attributes":{
						"POSITION":8,
						"NORMAL":9,
						"TEXCOORD_0":10,
						"TEXCOORD_1":11,
						"TEXCOORD_2":12,
						"TEXCOORD_3":13,
						"TEXCOORD_4":14
					},
					"indices":15,
					"material":1
				},
				{
					"attributes":{
						"POSITION":16,
						"NORMAL":17,
						"TEXCOORD_0":18,
						"TEXCOORD_1":19,
						"TEXCOORD_2":20,
						"TEXCOORD_3":21,
						"TEXCOORD_4":22
					},
					"indices":23,
					"material":2
				}
			]
		}
	],
	"textures":[
		{
			"sampler":0,
			"source":0
		},
		{
			"sampler":0,
			"source":1
		},
		{
			"sampler":0,
			"source":2
		},
		{
			"sampler":0,
			"source":3
		},
		{
			"sampler":0,
			"source":4
		},
		{
			"sampler":0,
			"source":5
		},
		{
			"sampler":0,
			"source":6
		},
		{
			"sampler":0,
			"source":7
		},
		{
			"sampler":0,
			"source":8
		}
	],
	"images":[
		{
			"mimeType":"image/png",
			"name":"MAT_Shoe_L_normal",
			"uri":"MAT_Shoe_L_normal.png"
		},
		{
			"mimeType":"image/png",
			"name":"MAT_Shoe_L_metallicRoughness",
			"uri":"MAT_Shoe_L_metallicRoughness.png"
		},
		{
			"mimeType":"image/png",
			"name":"MAT_Shoe_L_baseColor",
			"uri":"MAT_Shoe_L_baseColor.png"
		},
		{
			"mimeType":"image/png",
			"name":"MAT_Sole_L_normal",
			"uri":"MAT_Sole_L_normal.png"
		},
		{
			"mimeType":"image/png",
			"name":"MAT_Sole_L_metallicRoughness",
			"uri":"MAT_Sole_L_metallicRoughness.png"
		},
		{
			"mimeType":"image/png",
			"name":"MAT_Sole_L_baseColor",
			"uri":"MAT_Sole_L_baseColor.png"
		},
		{
			"mimeType":"image/png",
			"name":"MAT_Laces_L_normal",
			"uri":"MAT_Laces_L_normal.png"
		},
		{
			"mimeType":"image/png",
			"name":"MAT_Laces_L_metallicRoughness",
			"uri":"MAT_Laces_L_metallicRoughness.png"
		},
		{
			"mimeType":"image/png",
			"name":"MAT_Laces_L_baseColor",
			"uri":"MAT_Laces_L_baseColor.png"
		}
	],
	"accessors":[
		{
			"bufferView":0,
			"componentType":5126,
			"count":44512,
			"max":[
				0.3801961839199066,
				0.43248018622398376,
				0.32705533504486084
			],
			"min":[
				-0.5133963823318481,
				-0.5104999542236328,
				-0.35726913809776306
			],
			"type":"VEC3"
		},
		{
			"bufferView":1,
			"componentType":5126,
			"count":44512,
			"type":"VEC3"
		},
		{
			"bufferView":2,
			"componentType":5126,
			"count":44512,
			"type":"VEC2"
		},
		{
			"bufferView":3,
			"componentType":5126,
			"count":44512,
			"type":"VEC2"
		},
		{
			"bufferView":4,
			"componentType":5126,
			"count":44512,
			"type":"VEC2"
		},
		{
			"bufferView":5,
			"componentType":5126,
			"count":44512,
			"type":"VEC2"
		},
		{
			"bufferView":6,
			"componentType":5126,
			"count":44512,
			"type":"VEC2"
		},
		{
			"bufferView":7,
			"componentType":5123,
			"count":66768,
			"type":"SCALAR"
		},
		{
			"bufferView":8,
			"componentType":5126,
			"count":1332,
			"max":[
				0.35474133491516113,
				0.09696078300476074,
				0.3041061460971832
			],
			"min":[
				-0.4466049373149872,
				-0.4441259503364563,
				-0.3081563711166382
			],
			"type":"VEC3"
		},
		{
			"bufferView":9,
			"componentType":5126,
			"count":1332,
			"type":"VEC3"
		},
		{
			"bufferView":10,
			"componentType":5126,
			"count":1332,
			"type":"VEC2"
		},
		{
			"bufferView":11,
			"componentType":5126,
			"count":1332,
			"type":"VEC2"
		},
		{
			"bufferView":12,
			"componentType":5126,
			"count":1332,
			"type":"VEC2"
		},
		{
			"bufferView":13,
			"componentType":5126,
			"count":1332,
			"type":"VEC2"
		},
		{
			"bufferView":14,
			"componentType":5126,
			"count":1332,
			"type":"VEC2"
		},
		{
			"bufferView":15,
			"componentType":5123,
			"count":2640,
			"type":"SCALAR"
		},
		{
			"bufferView":16,
			"componentType":5126,
			"count":14992,
			"max":[
				0.24039320647716522,
				0.29682737588882446,
				0.19604387879371643
			],
			"min":[
				-0.029108840972185135,
				-0.19254526495933533,
				-0.09472040086984634
			],
			"type":"VEC3"
		},
		{
			"bufferView":17,
			"componentType":5126,
			"count":14992,
			"type":"VEC3"
		},
		{
			"bufferView":18,
			"componentType":5126,
			"count":14992,
			"type":"VEC2"
		},
		{
			"bufferView":19,
			"componentType":5126,
			"count":14992,
			"type":"VEC2"
		},
		{
			"bufferView":20,
			"componentType":5126,
			"count":14992,
			"type":"VEC2"
		},
		{
			"bufferView":21,
			"componentType":5126,
			"count":14992,
			"type":"VEC2"
		},
		{
			"bufferView":22,
			"componentType":5126,
			"count":14992,
			"type":"VEC2"
		},
		{
			"bufferView":23,
			"componentType":5123,
			"count":22500,
			"type":"SCALAR"
		}
	],
	"bufferViews":[
		{
			"buffer":0,
			"byteLength":534144,
			"byteOffset":0,
			"target":34962
		},
		{
			"buffer":0,
			"byteLength":534144,
			"byteOffset":534144,
			"target":34962
		},
		{
			"buffer":0,
			"byteLength":356096,
			"byteOffset":1068288,
			"target":34962
		},
		{
			"buffer":0,
			"byteLength":356096,
			"byteOffset":1424384,
			"target":34962
		},
		{
			"buffer":0,
			"byteLength":356096,
			"byteOffset":1780480,
			"target":34962
		},
		{
			"buffer":0,
			"byteLength":356096,
			"byteOffset":2136576,
			"target":34962
		},
		{
			"buffer":0,
			"byteLength":356096,
			"byteOffset":2492672,
			"target":34962
		},
		{
			"buffer":0,
			"byteLength":133536,
			"byteOffset":2848768,
			"target":34963
		},
		{
			"buffer":0,
			"byteLength":15984,
			"byteOffset":2982304,
			"target":34962
		},
		{
			"buffer":0,
			"byteLength":15984,
			"byteOffset":2998288,
			"target":34962
		},
		{
			"buffer":0,
			"byteLength":10656,
			"byteOffset":3014272,
			"target":34962
		},
		{
			"buffer":0,
			"byteLength":10656,
			"byteOffset":3024928,
			"target":34962
		},
		{
			"buffer":0,
			"byteLength":10656,
			"byteOffset":3035584,
			"target":34962
		},
		{
			"buffer":0,
			"byteLength":10656,
			"byteOffset":3046240,
			"target":34962
		},
		{
			"buffer":0,
			"byteLength":10656,
			"byteOffset":3056896,
			"target":34962
		},
		{
			"buffer":0,
			"byteLength":5280,
			"byteOffset":3067552,
			"target":34963
		},
		{
			"buffer":0,
			"byteLength":179904,
			"byteOffset":3072832,
			"target":34962
		},
		{
			"buffer":0,
			"byteLength":179904,
			"byteOffset":3252736,
			"target":34962
		},
		{
			"buffer":0,
			"byteLength":119936,
			"byteOffset":3432640,
			"target":34962
		},
		{
			"buffer":0,
			"byteLength":119936,
			"byteOffset":3552576,
			"target":34962
		},
		{
			"buffer":0,
			"byteLength":119936,
			"byteOffset":3672512,
			"target":34962
		},
		{
			"buffer":0,
			"byteLength":119936,
			"byteOffset":3792448,
			"target":34962
		},
		{
			"buffer":0,
			"byteLength":119936,
			"byteOffset":3912384,
			"target":34962
		},
		{
			"buffer":0,
			"byteLength":45000,
			"byteOffset":4032320,
			"target":34963
		}
	],
	"samplers":[
		{
			"magFilter":9729,
			"minFilter":9987
		}
	],
	"buffers":[
		{
			"byteLength":4077320,
			"uri":"air_jordan.bin"
		}
	]
}
