{
	"asset":{
		"generator":"Khronos glTF Blender I/O v4.2.0",
		"version":"2.0"
	},
	"scene":0,
	"scenes":[
		{
			"name":"Scene",
			"nodes":[
				0
			]
		}
	],
	"nodes":[
		{
			"mesh":0,
			"name":"AirJordan"
		}
	],
	"materials":[
		{
			"alphaMode":"BLEND",
			"doubleSided":true,
			"name":"MAT_Shoe_L",
			"normalTexture":{
				"index":0
			},
			"occlusionTexture":{
				"index":1
			},
			"pbrMetallicRoughness":{
				"baseColorTexture":{
					"index":2
				},
				"metallicFactor":0,
				"metallicRoughnessTexture":{
					"index":1
				}
			}
		},
		{
			"alphaMode":"BLEND",
			"doubleSided":true,
			"name":"MAT_Sole_L",
			"normalTexture":{
				"index":3
			},
			"occlusionTexture":{
				"index":4
			},
			"pbrMetallicRoughness":{
				"baseColorTexture":{
					"index":5
				},
				"metallicFactor":0,
				"metallicRoughnessTexture":{
					"index":4
				}
			}
		},
		{
			"alphaMode":"BLEND",
			"doubleSided":true,
			"name":"MAT_Laces_L",
			"normalTexture":{
				"index":6
			},
			"occlusionTexture":{
				"index":7
			},
			"pbrMetallicRoughness":{
				"baseColorTexture":{
					"index":8
				},
				"metallicFactor":0,
				"metallicRoughnessTexture":{
					"index":7
				}
			}
		}
	],
	"meshes":[
		{
			"name":"Cube.002",
			"primitives":[
				{
					"attributes":{
						"POSITION":0,
						"NORMAL":1,
						"TEXCOORD_0":2,
						"TEXCOORD_1":3,
						"TEXCOORD_2":4,
						"TEXCOORD_3":5,
						"TEXCOORD_4":6
					},
					"indices":7,
					"material":0
				},
				{
					"attributes":{
						"POSITION":8,
						"NORMAL":9,
						"TEXCOORD_0":10,
						"TEXCOORD_1":11,
						"TEXCOORD_2":12,
						"TEXCOORD_3":13,
						"TEXCOORD_4":14
					},
					"indices":15,
					"material":1
				},
				{
					"attributes":{
						"POSITION":16,
						"NORMAL":17,
						"TEXCOORD_0":18,
						"TEXCOORD_1":19,
						"TEXCOORD_2":20,
						"TEXCOORD_3":21,
						"TEXCOORD_4":22
					},
					"indices":23,
					"material":2
				}
			]
		}
	],
	"textures":[
		{
			"sampler":0,
			"source":0
		},
		{
			"sampler":0,
			"source":1
		},
		{
			"sampler":0,
			"source":2
		},
		{
			"sampler":0,
			"source":3
		},
		{
			"sampler":0,
			"source":4
		},
		{
			"sampler":0,
			"source":5
		},
		{
			"sampler":0,
			"source":6
		},
		{
			"sampler":0,
			"source":7
		},
		{
			"sampler":0,
			"source":8
		}
	],
	"images":[
		{
			"mimeType":"image/png",
			"name":"MAT_Shoe_L_normal",
			"uri":"MAT_Shoe_L_normal.png"
		},
		{
			"mimeType":"image/png",
			"name":"MAT_Shoe_L_metallicRoughness",
			"uri":"MAT_Shoe_L_metallicRoughness.png"
		},
		{
			"mimeType":"image/png",
			"name":"MAT_Shoe_L_baseColor",
			"uri":"MAT_Shoe_L_baseColor.png"
		},
		{
			"mimeType":"image/png",
			"name":"MAT_Sole_L_normal",
			"uri":"MAT_Sole_L_normal.png"
		},
		{
			"mimeType":"image/png",
			"name":"MAT_Sole_L_metallicRoughness",
			"uri":"MAT_Sole_L_metallicRoughness.png"
		},
		{
			"mimeType":"image/png",
			"name":"MAT_Sole_L_baseColor",
			"uri":"MAT_Sole_L_baseColor.png"
		},
		{
			"mimeType":"image/png",
			"name":"MAT_Laces_L_normal",
			"uri":"MAT_Laces_L_normal.png"
		},
		{
			"mimeType":"image/png",
			"name":"MAT_Laces_L_metallicRoughness",
			"uri":"MAT_Laces_L_metallicRoughness.png"
		},
		{
			"mimeType":"image/png",
			"name":"MAT_Laces_L_baseColor",
			"uri":"MAT_Laces_L_baseColor.png"
		}
	],
	"accessors":[
		{
			"bufferView":0,
			"componentType":5126,
			"count":133536,
			"max":[
				0.5158449411392212,
				0.5839671492576599,
				0.4415758550167084
			],
			"min":[
				-0.6965399980545044,
				-0.6926592588424683,
				-0.4858578145503998
			],
			"type":"VEC3"
		},
		{
			"bufferView":1,
			"componentType":5126,
			"count":133536,
			"type":"VEC3"
		},
		{
			"bufferView":2,
			"componentType":5126,
			"count":133536,
			"type":"VEC2"
		},
		{
			"bufferView":3,
			"componentType":5126,
			"count":133536,
			"type":"VEC2"
		},
		{
			"bufferView":4,
			"componentType":5126,
			"count":133536,
			"type":"VEC2"
		},
		{
			"bufferView":5,
			"componentType":5126,
			"count":133536,
			"type":"VEC2"
		},
		{
			"bufferView":6,
			"componentType":5126,
			"count":133536,
			"type":"VEC2"
		},
		{
			"bufferView":7,
			"componentType":5125,
			"count":667680,
			"type":"SCALAR"
		},
		{
			"bufferView":8,
			"componentType":5126,
			"count":4132,
			"max":[
				0.47894150018692017,
				0.13101594150066376,
				0.41059446334838867
			],
			"min":[
				-0.6028760671615601,
				-0.5994511842727661,
				-0.4159599840641022
			],
			"type":"VEC3"
		},
		{
			"bufferView":9,
			"componentType":5126,
			"count":4132,
			"type":"VEC3"
		},
		{
			"bufferView":10,
			"componentType":5126,
			"count":4132,
			"type":"VEC2"
		},
		{
			"bufferView":11,
			"componentType":5126,
			"count":4132,
			"type":"VEC2"
		},
		{
			"bufferView":12,
			"componentType":5126,
			"count":4132,
			"type":"VEC2"
		},
		{
			"bufferView":13,
			"componentType":5126,
			"count":4132,
			"type":"VEC2"
		},
		{
			"bufferView":14,
			"componentType":5126,
			"count":4132,
			"type":"VEC2"
		},
		{
			"bufferView":15,
			"componentType":5123,
			"count":21264,
			"type":"SCALAR"
		},
		{
			"bufferView":16,
			"componentType":5126,
			"count":44976,
			"max":[
				0.32735320925712585,
				0.4008358418941498,
				0.264710396528244
			],
			"min":[
				-0.04169682040810585,
				-0.26287928223609924,
				-0.12931941449642181
			],
			"type":"VEC3"
		},
		{
			"bufferView":17,
			"componentType":5126,
			"count":44976,
			"type":"VEC3"
		},
		{
			"bufferView":18,
			"componentType":5126,
			"count":44976,
			"type":"VEC2"
		},
		{
			"bufferView":19,
			"componentType":5126,
			"count":44976,
			"type":"VEC2"
		},
		{
			"bufferView":20,
			"componentType":5126,
			"count":44976,
			"type":"VEC2"
		},
		{
			"bufferView":21,
			"componentType":5126,
			"count":44976,
			"type":"VEC2"
		},
		{
			"bufferView":22,
			"componentType":5126,
			"count":44976,
			"type":"VEC2"
		},
		{
			"bufferView":23,
			"componentType":5123,
			"count":224904,
			"type":"SCALAR"
		}
	],
	"bufferViews":[
		{
			"buffer":0,
			"byteLength":1602432,
			"byteOffset":0,
			"target":34962
		},
		{
			"buffer":0,
			"byteLength":1602432,
			"byteOffset":1602432,
			"target":34962
		},
		{
			"buffer":0,
			"byteLength":1068288,
			"byteOffset":3204864,
			"target":34962
		},
		{
			"buffer":0,
			"byteLength":1068288,
			"byteOffset":4273152,
			"target":34962
		},
		{
			"buffer":0,
			"byteLength":1068288,
			"byteOffset":5341440,
			"target":34962
		},
		{
			"buffer":0,
			"byteLength":1068288,
			"byteOffset":6409728,
			"target":34962
		},
		{
			"buffer":0,
			"byteLength":1068288,
			"byteOffset":7478016,
			"target":34962
		},
		{
			"buffer":0,
			"byteLength":2670720,
			"byteOffset":8546304,
			"target":34963
		},
		{
			"buffer":0,
			"byteLength":49584,
			"byteOffset":11217024,
			"target":34962
		},
		{
			"buffer":0,
			"byteLength":49584,
			"byteOffset":11266608,
			"target":34962
		},
		{
			"buffer":0,
			"byteLength":33056,
			"byteOffset":11316192,
			"target":34962
		},
		{
			"buffer":0,
			"byteLength":33056,
			"byteOffset":11349248,
			"target":34962
		},
		{
			"buffer":0,
			"byteLength":33056,
			"byteOffset":11382304,
			"target":34962
		},
		{
			"buffer":0,
			"byteLength":33056,
			"byteOffset":11415360,
			"target":34962
		},
		{
			"buffer":0,
			"byteLength":33056,
			"byteOffset":11448416,
			"target":34962
		},
		{
			"buffer":0,
			"byteLength":42528,
			"byteOffset":11481472,
			"target":34963
		},
		{
			"buffer":0,
			"byteLength":539712,
			"byteOffset":11524000,
			"target":34962
		},
		{
			"buffer":0,
			"byteLength":539712,
			"byteOffset":12063712,
			"target":34962
		},
		{
			"buffer":0,
			"byteLength":359808,
			"byteOffset":12603424,
			"target":34962
		},
		{
			"buffer":0,
			"byteLength":359808,
			"byteOffset":12963232,
			"target":34962
		},
		{
			"buffer":0,
			"byteLength":359808,
			"byteOffset":13323040,
			"target":34962
		},
		{
			"buffer":0,
			"byteLength":359808,
			"byteOffset":13682848,
			"target":34962
		},
		{
			"buffer":0,
			"byteLength":359808,
			"byteOffset":14042656,
			"target":34962
		},
		{
			"buffer":0,
			"byteLength":449808,
			"byteOffset":14402464,
			"target":34963
		}
	],
	"samplers":[
		{
			"magFilter":9729,
			"minFilter":9987
		}
	],
	"buffers":[
		{
			"byteLength":14852272,
			"uri":"air_jordan.bin"
		}
	]
}
