{
	"asset":{
		"generator":"Khronos glTF Blender I/O v4.2.69",
		"version":"2.0"
	},
	"scene":0,
	"scenes":[
		{
			"name":"Scene",
			"nodes":[
				0
			]
		}
	],
	"nodes":[
		{
			"mesh":0,
			"name":"FlipFlop_plastic_0.001",
			"rotation":[
				0,
				0.70710688829422,
				-0.7071066498756409,
				5.3385061704602776e-08
			],
			"scale":[
				0.2799449861049652,
				0.27994504570961,
				0.27994504570961
			]
		}
	],
	"materials":[
		{
			"doubleSided":true,
			"name":"cord",
			"pbrMetallicRoughness":{
				"baseColorFactor":[
					0,
					0,
					0,
					1
				],
				"metallicFactor":0
			}
		},
		{
			"doubleSided":true,
			"name":"Material.002",
			"pbrMetallicRoughness":{
				"baseColorFactor":[
					0,
					0,
					0,
					1
				],
				"metallicFactor":0,
				"roughnessFactor":0.5
			}
		},
		{
			"alphaMode":"BLEND",
			"doubleSided":true,
			"name":"Material.001",
			"pbrMetallicRoughness":{
				"baseColorTexture":{
					"index":0
				},
				"metallicFactor":0,
				"roughnessFactor":0.5
			}
		},
		{
			"alphaMode":"BLEND",
			"doubleSided":true,
			"name":"Material.003",
			"pbrMetallicRoughness":{
				"baseColorTexture":{
					"index":1
				},
				"metallicFactor":0,
				"roughnessFactor":0.5
			}
		}
	],
	"meshes":[
		{
			"name":"FlipFlop_plastic_0.001",
			"primitives":[
				{
					"attributes":{
						"POSITION":0,
						"NORMAL":1,
						"TEXCOORD_0":2
					},
					"indices":3,
					"material":0
				},
				{
					"attributes":{
						"POSITION":4,
						"NORMAL":5,
						"TEXCOORD_0":6
					},
					"indices":7,
					"material":1
				},
				{
					"attributes":{
						"POSITION":8,
						"NORMAL":9,
						"TEXCOORD_0":10
					},
					"indices":11,
					"material":2
				},
				{
					"attributes":{
						"POSITION":12,
						"NORMAL":13,
						"TEXCOORD_0":14
					},
					"indices":15,
					"material":3
				}
			]
		}
	],
	"textures":[
		{
			"sampler":0,
			"source":0
		},
		{
			"sampler":0,
			"source":0
		}
	],
	"images":[
		{
			"mimeType":"image/png",
			"name":"Nike logo",
			"uri":"Nike%20logo.png"
		}
	],
	"accessors":[
		{
			"bufferView":0,
			"componentType":5126,
			"count":1568,
			"max":[
				0.5634501576423645,
				0.5498704314231873,
				0.05215603485703468
			],
			"min":[
				-0.7549290060997009,
				-0.5643777847290039,
				-0.2776276469230652
			],
			"type":"VEC3"
		},
		{
			"bufferView":1,
			"componentType":5126,
			"count":1568,
			"type":"VEC3"
		},
		{
			"bufferView":2,
			"componentType":5126,
			"count":1568,
			"type":"VEC2"
		},
		{
			"bufferView":3,
			"componentType":5123,
			"count":5448,
			"type":"SCALAR"
		},
		{
			"bufferView":4,
			"componentType":5126,
			"count":2998,
			"max":[
				1.1807241439819336,
				0.7983776926994324,
				0.12624284625053406
			],
			"min":[
				-1.1600333452224731,
				-0.8864794373512268,
				0.01611415110528469
			],
			"type":"VEC3"
		},
		{
			"bufferView":5,
			"componentType":5126,
			"count":2998,
			"type":"VEC3"
		},
		{
			"bufferView":6,
			"componentType":5126,
			"count":2998,
			"type":"VEC2"
		},
		{
			"bufferView":7,
			"componentType":5123,
			"count":16032,
			"type":"SCALAR"
		},
		{
			"bufferView":8,
			"componentType":5126,
			"count":4,
			"max":[
				-0.5158740878105164,
				-0.6298565864562988,
				0.0203838013112545
			],
			"min":[
				-0.8809798359870911,
				-0.7856376767158508,
				0.01606975868344307
			],
			"type":"VEC3"
		},
		{
			"bufferView":9,
			"componentType":5126,
			"count":4,
			"type":"VEC3"
		},
		{
			"bufferView":10,
			"componentType":5126,
			"count":4,
			"type":"VEC2"
		},
		{
			"bufferView":11,
			"componentType":5123,
			"count":6,
			"type":"SCALAR"
		},
		{
			"bufferView":12,
			"componentType":5126,
			"count":9,
			"max":[
				-0.300456166267395,
				0.2642439603805542,
				-0.27114877104759216
			],
			"min":[
				-0.393391489982605,
				0.1709589958190918,
				-0.2792797386646271
			],
			"type":"VEC3"
		},
		{
			"bufferView":13,
			"componentType":5126,
			"count":9,
			"type":"VEC3"
		},
		{
			"bufferView":14,
			"componentType":5126,
			"count":9,
			"type":"VEC2"
		},
		{
			"bufferView":15,
			"componentType":5123,
			"count":24,
			"type":"SCALAR"
		}
	],
	"bufferViews":[
		{
			"buffer":0,
			"byteLength":18816,
			"byteOffset":0,
			"target":34962
		},
		{
			"buffer":0,
			"byteLength":18816,
			"byteOffset":18816,
			"target":34962
		},
		{
			"buffer":0,
			"byteLength":12544,
			"byteOffset":37632,
			"target":34962
		},
		{
			"buffer":0,
			"byteLength":10896,
			"byteOffset":50176,
			"target":34963
		},
		{
			"buffer":0,
			"byteLength":35976,
			"byteOffset":61072,
			"target":34962
		},
		{
			"buffer":0,
			"byteLength":35976,
			"byteOffset":97048,
			"target":34962
		},
		{
			"buffer":0,
			"byteLength":23984,
			"byteOffset":133024,
			"target":34962
		},
		{
			"buffer":0,
			"byteLength":32064,
			"byteOffset":157008,
			"target":34963
		},
		{
			"buffer":0,
			"byteLength":48,
			"byteOffset":189072,
			"target":34962
		},
		{
			"buffer":0,
			"byteLength":48,
			"byteOffset":189120,
			"target":34962
		},
		{
			"buffer":0,
			"byteLength":32,
			"byteOffset":189168,
			"target":34962
		},
		{
			"buffer":0,
			"byteLength":12,
			"byteOffset":189200,
			"target":34963
		},
		{
			"buffer":0,
			"byteLength":108,
			"byteOffset":189212,
			"target":34962
		},
		{
			"buffer":0,
			"byteLength":108,
			"byteOffset":189320,
			"target":34962
		},
		{
			"buffer":0,
			"byteLength":72,
			"byteOffset":189428,
			"target":34962
		},
		{
			"buffer":0,
			"byteLength":48,
			"byteOffset":189500,
			"target":34963
		}
	],
	"samplers":[
		{
			"magFilter":9729,
			"minFilter":9987
		}
	],
	"buffers":[
		{
			"byteLength":189548,
			"uri":"nike_flip_flops.bin"
		}
	]
}
